<mxfile host="Electron" modified="2024-03-14T22:42:00.519Z" agent="Mozilla/5.0 (Windows NT 10.0; Win64; x64) AppleWebKit/537.36 (KHTML, like Gecko) draw.io/24.0.4 Chrome/120.0.6099.109 Electron/28.1.0 Safari/537.36" etag="AU5KMzn-YMyrPu5ecT4w" version="24.0.4" type="device">
  <diagram name="PÃ¡gina-1" id="Gm3ssb8NNbPonoekk3mt">
    <mxGraphModel dx="1098" dy="1692" grid="1" gridSize="10" guides="1" tooltips="1" connect="1" arrows="1" fold="1" page="1" pageScale="1" pageWidth="827" pageHeight="1169" math="0" shadow="0">
      <root>
        <mxCell id="0" />
        <mxCell id="1" parent="0" />
        <mxCell id="EfoeHj-lmJsRqs-ExASb-103" style="edgeStyle=orthogonalEdgeStyle;rounded=0;orthogonalLoop=1;jettySize=auto;html=1;endArrow=none;endFill=0;" parent="1" source="EfoeHj-lmJsRqs-ExASb-1" target="EfoeHj-lmJsRqs-ExASb-102" edge="1">
          <mxGeometry relative="1" as="geometry" />
        </mxCell>
        <mxCell id="EfoeHj-lmJsRqs-ExASb-1" value="Criminoso" style="rounded=0;whiteSpace=wrap;html=1;" parent="1" vertex="1">
          <mxGeometry x="80" y="250" width="120" height="40" as="geometry" />
        </mxCell>
        <mxCell id="EfoeHj-lmJsRqs-ExASb-5" value="" style="ellipse;whiteSpace=wrap;html=1;aspect=fixed;fillColor=#dae8fc;strokeColor=#6c8ebf;" parent="1" vertex="1">
          <mxGeometry x="80" y="220" width="10" height="10" as="geometry" />
        </mxCell>
        <mxCell id="EfoeHj-lmJsRqs-ExASb-6" value="" style="ellipse;whiteSpace=wrap;html=1;aspect=fixed;fillColor=#dae8fc;strokeColor=#6c8ebf;" parent="1" vertex="1">
          <mxGeometry x="110" y="220" width="10" height="10" as="geometry" />
        </mxCell>
        <mxCell id="EfoeHj-lmJsRqs-ExASb-7" value="" style="ellipse;whiteSpace=wrap;html=1;aspect=fixed;fillColor=#dae8fc;strokeColor=#6c8ebf;" parent="1" vertex="1">
          <mxGeometry x="160" y="220" width="10" height="10" as="geometry" />
        </mxCell>
        <mxCell id="EfoeHj-lmJsRqs-ExASb-8" value="" style="ellipse;whiteSpace=wrap;html=1;aspect=fixed;fillColor=#f8cecc;strokeColor=#b85450;" parent="1" vertex="1">
          <mxGeometry x="190" y="220" width="10" height="10" as="geometry" />
        </mxCell>
        <mxCell id="EfoeHj-lmJsRqs-ExASb-15" style="edgeStyle=orthogonalEdgeStyle;rounded=0;orthogonalLoop=1;jettySize=auto;html=1;entryX=0.5;entryY=0;entryDx=0;entryDy=0;endArrow=none;endFill=0;" parent="1" source="EfoeHj-lmJsRqs-ExASb-9" target="EfoeHj-lmJsRqs-ExASb-1" edge="1">
          <mxGeometry relative="1" as="geometry" />
        </mxCell>
        <mxCell id="EfoeHj-lmJsRqs-ExASb-9" value="" style="ellipse;whiteSpace=wrap;html=1;aspect=fixed;fillColor=#dae8fc;strokeColor=#6c8ebf;" parent="1" vertex="1">
          <mxGeometry x="135" y="220" width="10" height="10" as="geometry" />
        </mxCell>
        <mxCell id="EfoeHj-lmJsRqs-ExASb-10" style="edgeStyle=orthogonalEdgeStyle;rounded=0;orthogonalLoop=1;jettySize=auto;html=1;endArrow=none;endFill=0;" parent="1" source="EfoeHj-lmJsRqs-ExASb-7" edge="1">
          <mxGeometry relative="1" as="geometry">
            <mxPoint x="165" y="250" as="targetPoint" />
          </mxGeometry>
        </mxCell>
        <mxCell id="EfoeHj-lmJsRqs-ExASb-11" style="edgeStyle=orthogonalEdgeStyle;rounded=0;orthogonalLoop=1;jettySize=auto;html=1;entryX=0.953;entryY=-0.001;entryDx=0;entryDy=0;entryPerimeter=0;endArrow=none;endFill=0;" parent="1" source="EfoeHj-lmJsRqs-ExASb-8" target="EfoeHj-lmJsRqs-ExASb-1" edge="1">
          <mxGeometry relative="1" as="geometry" />
        </mxCell>
        <mxCell id="EfoeHj-lmJsRqs-ExASb-16" style="edgeStyle=orthogonalEdgeStyle;rounded=0;orthogonalLoop=1;jettySize=auto;html=1;entryX=0.292;entryY=0;entryDx=0;entryDy=0;entryPerimeter=0;endArrow=none;endFill=0;" parent="1" source="EfoeHj-lmJsRqs-ExASb-6" target="EfoeHj-lmJsRqs-ExASb-1" edge="1">
          <mxGeometry relative="1" as="geometry" />
        </mxCell>
        <mxCell id="EfoeHj-lmJsRqs-ExASb-17" style="edgeStyle=orthogonalEdgeStyle;rounded=0;orthogonalLoop=1;jettySize=auto;html=1;entryX=0.049;entryY=-0.015;entryDx=0;entryDy=0;entryPerimeter=0;endArrow=none;endFill=0;" parent="1" source="EfoeHj-lmJsRqs-ExASb-5" target="EfoeHj-lmJsRqs-ExASb-1" edge="1">
          <mxGeometry relative="1" as="geometry" />
        </mxCell>
        <mxCell id="EfoeHj-lmJsRqs-ExASb-18" value="&lt;font style=&quot;font-size: 8px;&quot;&gt;Nome&lt;/font&gt;" style="text;html=1;align=center;verticalAlign=middle;resizable=0;points=[];autosize=1;strokeColor=none;fillColor=none;" parent="1" vertex="1">
          <mxGeometry x="65" y="190" width="40" height="30" as="geometry" />
        </mxCell>
        <mxCell id="EfoeHj-lmJsRqs-ExASb-19" value="&lt;font style=&quot;font-size: 8px;&quot;&gt;Idade&lt;/font&gt;" style="text;html=1;align=center;verticalAlign=middle;resizable=0;points=[];autosize=1;strokeColor=none;fillColor=none;" parent="1" vertex="1">
          <mxGeometry x="95" y="190" width="40" height="30" as="geometry" />
        </mxCell>
        <mxCell id="EfoeHj-lmJsRqs-ExASb-20" value="&lt;span style=&quot;font-size: 8px;&quot;&gt;End.&lt;/span&gt;" style="text;html=1;align=center;verticalAlign=middle;resizable=0;points=[];autosize=1;strokeColor=none;fillColor=none;" parent="1" vertex="1">
          <mxGeometry x="120" y="190" width="40" height="30" as="geometry" />
        </mxCell>
        <mxCell id="EfoeHj-lmJsRqs-ExASb-21" value="&lt;span style=&quot;font-size: 8px;&quot;&gt;Tel.&lt;/span&gt;" style="text;html=1;align=center;verticalAlign=middle;resizable=0;points=[];autosize=1;strokeColor=none;fillColor=none;" parent="1" vertex="1">
          <mxGeometry x="145" y="190" width="40" height="30" as="geometry" />
        </mxCell>
        <mxCell id="EfoeHj-lmJsRqs-ExASb-22" value="&lt;span style=&quot;font-size: 8px;&quot;&gt;CPF&lt;/span&gt;" style="text;html=1;align=center;verticalAlign=middle;resizable=0;points=[];autosize=1;strokeColor=none;fillColor=none;" parent="1" vertex="1">
          <mxGeometry x="175" y="190" width="40" height="30" as="geometry" />
        </mxCell>
        <mxCell id="EfoeHj-lmJsRqs-ExASb-34" value="Vitimas" style="rounded=0;whiteSpace=wrap;html=1;" parent="1" vertex="1">
          <mxGeometry x="595" y="250" width="120" height="40" as="geometry" />
        </mxCell>
        <mxCell id="EfoeHj-lmJsRqs-ExASb-35" value="" style="ellipse;whiteSpace=wrap;html=1;aspect=fixed;fillColor=#dae8fc;strokeColor=#6c8ebf;" parent="1" vertex="1">
          <mxGeometry x="595" y="220" width="10" height="10" as="geometry" />
        </mxCell>
        <mxCell id="EfoeHj-lmJsRqs-ExASb-36" value="" style="ellipse;whiteSpace=wrap;html=1;aspect=fixed;fillColor=#dae8fc;strokeColor=#6c8ebf;" parent="1" vertex="1">
          <mxGeometry x="625" y="220" width="10" height="10" as="geometry" />
        </mxCell>
        <mxCell id="EfoeHj-lmJsRqs-ExASb-37" value="" style="ellipse;whiteSpace=wrap;html=1;aspect=fixed;fillColor=#dae8fc;strokeColor=#6c8ebf;" parent="1" vertex="1">
          <mxGeometry x="675" y="220" width="10" height="10" as="geometry" />
        </mxCell>
        <mxCell id="EfoeHj-lmJsRqs-ExASb-38" value="" style="ellipse;whiteSpace=wrap;html=1;aspect=fixed;fillColor=#f8cecc;strokeColor=#b85450;" parent="1" vertex="1">
          <mxGeometry x="705" y="220" width="10" height="10" as="geometry" />
        </mxCell>
        <mxCell id="EfoeHj-lmJsRqs-ExASb-39" style="edgeStyle=orthogonalEdgeStyle;rounded=0;orthogonalLoop=1;jettySize=auto;html=1;entryX=0.5;entryY=0;entryDx=0;entryDy=0;endArrow=none;endFill=0;" parent="1" source="EfoeHj-lmJsRqs-ExASb-40" target="EfoeHj-lmJsRqs-ExASb-34" edge="1">
          <mxGeometry relative="1" as="geometry" />
        </mxCell>
        <mxCell id="EfoeHj-lmJsRqs-ExASb-40" value="" style="ellipse;whiteSpace=wrap;html=1;aspect=fixed;fillColor=#dae8fc;strokeColor=#6c8ebf;" parent="1" vertex="1">
          <mxGeometry x="650" y="220" width="10" height="10" as="geometry" />
        </mxCell>
        <mxCell id="EfoeHj-lmJsRqs-ExASb-41" style="edgeStyle=orthogonalEdgeStyle;rounded=0;orthogonalLoop=1;jettySize=auto;html=1;endArrow=none;endFill=0;" parent="1" source="EfoeHj-lmJsRqs-ExASb-37" edge="1">
          <mxGeometry relative="1" as="geometry">
            <mxPoint x="680" y="250" as="targetPoint" />
          </mxGeometry>
        </mxCell>
        <mxCell id="EfoeHj-lmJsRqs-ExASb-42" style="edgeStyle=orthogonalEdgeStyle;rounded=0;orthogonalLoop=1;jettySize=auto;html=1;entryX=0.953;entryY=-0.001;entryDx=0;entryDy=0;entryPerimeter=0;endArrow=none;endFill=0;" parent="1" source="EfoeHj-lmJsRqs-ExASb-38" target="EfoeHj-lmJsRqs-ExASb-34" edge="1">
          <mxGeometry relative="1" as="geometry" />
        </mxCell>
        <mxCell id="EfoeHj-lmJsRqs-ExASb-43" style="edgeStyle=orthogonalEdgeStyle;rounded=0;orthogonalLoop=1;jettySize=auto;html=1;entryX=0.292;entryY=0;entryDx=0;entryDy=0;entryPerimeter=0;endArrow=none;endFill=0;" parent="1" source="EfoeHj-lmJsRqs-ExASb-36" target="EfoeHj-lmJsRqs-ExASb-34" edge="1">
          <mxGeometry relative="1" as="geometry" />
        </mxCell>
        <mxCell id="EfoeHj-lmJsRqs-ExASb-44" style="edgeStyle=orthogonalEdgeStyle;rounded=0;orthogonalLoop=1;jettySize=auto;html=1;entryX=0.049;entryY=-0.015;entryDx=0;entryDy=0;entryPerimeter=0;endArrow=none;endFill=0;" parent="1" source="EfoeHj-lmJsRqs-ExASb-35" target="EfoeHj-lmJsRqs-ExASb-34" edge="1">
          <mxGeometry relative="1" as="geometry" />
        </mxCell>
        <mxCell id="EfoeHj-lmJsRqs-ExASb-45" value="&lt;font style=&quot;font-size: 8px;&quot;&gt;Nome&lt;/font&gt;" style="text;html=1;align=center;verticalAlign=middle;resizable=0;points=[];autosize=1;strokeColor=none;fillColor=none;" parent="1" vertex="1">
          <mxGeometry x="580" y="195" width="40" height="30" as="geometry" />
        </mxCell>
        <mxCell id="EfoeHj-lmJsRqs-ExASb-46" value="&lt;font style=&quot;font-size: 8px;&quot;&gt;Idade&lt;/font&gt;" style="text;html=1;align=center;verticalAlign=middle;resizable=0;points=[];autosize=1;strokeColor=none;fillColor=none;" parent="1" vertex="1">
          <mxGeometry x="610" y="195" width="40" height="30" as="geometry" />
        </mxCell>
        <mxCell id="EfoeHj-lmJsRqs-ExASb-47" value="&lt;span style=&quot;font-size: 8px;&quot;&gt;End.&lt;/span&gt;" style="text;html=1;align=center;verticalAlign=middle;resizable=0;points=[];autosize=1;strokeColor=none;fillColor=none;" parent="1" vertex="1">
          <mxGeometry x="635" y="195" width="40" height="30" as="geometry" />
        </mxCell>
        <mxCell id="EfoeHj-lmJsRqs-ExASb-48" value="&lt;span style=&quot;font-size: 8px;&quot;&gt;Tel.&lt;/span&gt;" style="text;html=1;align=center;verticalAlign=middle;resizable=0;points=[];autosize=1;strokeColor=none;fillColor=none;" parent="1" vertex="1">
          <mxGeometry x="660" y="195" width="40" height="30" as="geometry" />
        </mxCell>
        <mxCell id="EfoeHj-lmJsRqs-ExASb-49" value="&lt;span style=&quot;font-size: 8px;&quot;&gt;CPF&lt;/span&gt;" style="text;html=1;align=center;verticalAlign=middle;resizable=0;points=[];autosize=1;strokeColor=none;fillColor=none;" parent="1" vertex="1">
          <mxGeometry x="690" y="195" width="40" height="30" as="geometry" />
        </mxCell>
        <mxCell id="EfoeHj-lmJsRqs-ExASb-50" value="Arma" style="rounded=0;whiteSpace=wrap;html=1;" parent="1" vertex="1">
          <mxGeometry x="210" y="425" width="120" height="40" as="geometry" />
        </mxCell>
        <mxCell id="EfoeHj-lmJsRqs-ExASb-51" value="" style="ellipse;whiteSpace=wrap;html=1;aspect=fixed;fillColor=#dae8fc;strokeColor=#6c8ebf;" parent="1" vertex="1">
          <mxGeometry x="215" y="395" width="10" height="10" as="geometry" />
        </mxCell>
        <mxCell id="EfoeHj-lmJsRqs-ExASb-52" value="" style="ellipse;whiteSpace=wrap;html=1;aspect=fixed;fillColor=#dae8fc;strokeColor=#6c8ebf;" parent="1" vertex="1">
          <mxGeometry x="240" y="395" width="10" height="10" as="geometry" />
        </mxCell>
        <mxCell id="EfoeHj-lmJsRqs-ExASb-53" value="" style="ellipse;whiteSpace=wrap;html=1;aspect=fixed;fillColor=#f8cecc;strokeColor=#b85450;" parent="1" vertex="1">
          <mxGeometry x="315" y="395" width="10" height="10" as="geometry" />
        </mxCell>
        <mxCell id="EfoeHj-lmJsRqs-ExASb-55" style="edgeStyle=orthogonalEdgeStyle;rounded=0;orthogonalLoop=1;jettySize=auto;html=1;entryX=0.5;entryY=0;entryDx=0;entryDy=0;endArrow=none;endFill=0;" parent="1" source="EfoeHj-lmJsRqs-ExASb-56" target="EfoeHj-lmJsRqs-ExASb-50" edge="1">
          <mxGeometry relative="1" as="geometry" />
        </mxCell>
        <mxCell id="EfoeHj-lmJsRqs-ExASb-56" value="" style="ellipse;whiteSpace=wrap;html=1;aspect=fixed;fillColor=#dae8fc;strokeColor=#6c8ebf;" parent="1" vertex="1">
          <mxGeometry x="290" y="395" width="10" height="10" as="geometry" />
        </mxCell>
        <mxCell id="EfoeHj-lmJsRqs-ExASb-57" style="edgeStyle=orthogonalEdgeStyle;rounded=0;orthogonalLoop=1;jettySize=auto;html=1;endArrow=none;endFill=0;exitX=0.5;exitY=1;exitDx=0;exitDy=0;" parent="1" source="EfoeHj-lmJsRqs-ExASb-53" edge="1">
          <mxGeometry relative="1" as="geometry">
            <mxPoint x="320" y="425" as="targetPoint" />
            <mxPoint x="320" y="415" as="sourcePoint" />
          </mxGeometry>
        </mxCell>
        <mxCell id="EfoeHj-lmJsRqs-ExASb-59" style="edgeStyle=orthogonalEdgeStyle;rounded=0;orthogonalLoop=1;jettySize=auto;html=1;entryX=0.292;entryY=0;entryDx=0;entryDy=0;entryPerimeter=0;endArrow=none;endFill=0;exitX=0.5;exitY=1;exitDx=0;exitDy=0;" parent="1" source="EfoeHj-lmJsRqs-ExASb-52" edge="1">
          <mxGeometry relative="1" as="geometry">
            <mxPoint x="240.03999999999996" y="425" as="targetPoint" />
            <Array as="points">
              <mxPoint x="245" y="425" />
            </Array>
          </mxGeometry>
        </mxCell>
        <mxCell id="EfoeHj-lmJsRqs-ExASb-60" style="edgeStyle=orthogonalEdgeStyle;rounded=0;orthogonalLoop=1;jettySize=auto;html=1;entryX=0.049;entryY=-0.015;entryDx=0;entryDy=0;entryPerimeter=0;endArrow=none;endFill=0;" parent="1" source="EfoeHj-lmJsRqs-ExASb-51" target="EfoeHj-lmJsRqs-ExASb-50" edge="1">
          <mxGeometry relative="1" as="geometry">
            <Array as="points">
              <mxPoint x="220" y="425" />
              <mxPoint x="216" y="425" />
            </Array>
          </mxGeometry>
        </mxCell>
        <mxCell id="EfoeHj-lmJsRqs-ExASb-61" value="&lt;font style=&quot;font-size: 8px;&quot;&gt;Nome&lt;/font&gt;" style="text;html=1;align=center;verticalAlign=middle;resizable=0;points=[];autosize=1;strokeColor=none;fillColor=none;" parent="1" vertex="1">
          <mxGeometry x="200" y="370" width="40" height="30" as="geometry" />
        </mxCell>
        <mxCell id="EfoeHj-lmJsRqs-ExASb-62" value="&lt;span style=&quot;font-size: 8px;&quot;&gt;Model.&lt;/span&gt;" style="text;html=1;align=center;verticalAlign=middle;resizable=0;points=[];autosize=1;strokeColor=none;fillColor=none;" parent="1" vertex="1">
          <mxGeometry x="220" y="370" width="50" height="30" as="geometry" />
        </mxCell>
        <mxCell id="EfoeHj-lmJsRqs-ExASb-63" value="&lt;span style=&quot;font-size: 8px;&quot;&gt;Tipo&lt;/span&gt;" style="text;html=1;align=center;verticalAlign=middle;resizable=0;points=[];autosize=1;strokeColor=none;fillColor=none;" parent="1" vertex="1">
          <mxGeometry x="275" y="370" width="40" height="30" as="geometry" />
        </mxCell>
        <mxCell id="EfoeHj-lmJsRqs-ExASb-64" value="&lt;span style=&quot;font-size: 8px;&quot;&gt;N-Serie&lt;/span&gt;" style="text;html=1;align=center;verticalAlign=middle;resizable=0;points=[];autosize=1;strokeColor=none;fillColor=none;" parent="1" vertex="1">
          <mxGeometry x="295" y="370" width="50" height="30" as="geometry" />
        </mxCell>
        <mxCell id="EfoeHj-lmJsRqs-ExASb-67" value="Crime" style="rounded=0;whiteSpace=wrap;html=1;" parent="1" vertex="1">
          <mxGeometry x="340" y="250" width="120" height="40" as="geometry" />
        </mxCell>
        <mxCell id="EfoeHj-lmJsRqs-ExASb-68" value="" style="ellipse;whiteSpace=wrap;html=1;aspect=fixed;fillColor=#dae8fc;strokeColor=#6c8ebf;" parent="1" vertex="1">
          <mxGeometry x="345" y="220" width="10" height="10" as="geometry" />
        </mxCell>
        <mxCell id="EfoeHj-lmJsRqs-ExASb-69" value="" style="ellipse;whiteSpace=wrap;html=1;aspect=fixed;fillColor=#dae8fc;strokeColor=#6c8ebf;" parent="1" vertex="1">
          <mxGeometry x="380" y="220" width="10" height="10" as="geometry" />
        </mxCell>
        <mxCell id="EfoeHj-lmJsRqs-ExASb-70" value="" style="ellipse;whiteSpace=wrap;html=1;aspect=fixed;fillColor=#dae8fc;strokeColor=#6c8ebf;" parent="1" vertex="1">
          <mxGeometry x="445" y="220" width="10" height="10" as="geometry" />
        </mxCell>
        <mxCell id="EfoeHj-lmJsRqs-ExASb-71" style="edgeStyle=orthogonalEdgeStyle;rounded=0;orthogonalLoop=1;jettySize=auto;html=1;entryX=0.5;entryY=0;entryDx=0;entryDy=0;endArrow=none;endFill=0;" parent="1" source="EfoeHj-lmJsRqs-ExASb-72" target="EfoeHj-lmJsRqs-ExASb-67" edge="1">
          <mxGeometry relative="1" as="geometry" />
        </mxCell>
        <mxCell id="EfoeHj-lmJsRqs-ExASb-72" value="" style="ellipse;whiteSpace=wrap;html=1;aspect=fixed;fillColor=#dae8fc;strokeColor=#6c8ebf;" parent="1" vertex="1">
          <mxGeometry x="410" y="220" width="10" height="10" as="geometry" />
        </mxCell>
        <mxCell id="EfoeHj-lmJsRqs-ExASb-73" style="edgeStyle=orthogonalEdgeStyle;rounded=0;orthogonalLoop=1;jettySize=auto;html=1;endArrow=none;endFill=0;exitX=0.5;exitY=1;exitDx=0;exitDy=0;" parent="1" source="EfoeHj-lmJsRqs-ExASb-70" edge="1">
          <mxGeometry relative="1" as="geometry">
            <mxPoint x="450" y="250" as="targetPoint" />
            <mxPoint x="450" y="240" as="sourcePoint" />
          </mxGeometry>
        </mxCell>
        <mxCell id="EfoeHj-lmJsRqs-ExASb-74" style="edgeStyle=orthogonalEdgeStyle;rounded=0;orthogonalLoop=1;jettySize=auto;html=1;entryX=0.292;entryY=0;entryDx=0;entryDy=0;entryPerimeter=0;endArrow=none;endFill=0;" parent="1" source="EfoeHj-lmJsRqs-ExASb-69" target="EfoeHj-lmJsRqs-ExASb-67" edge="1">
          <mxGeometry relative="1" as="geometry" />
        </mxCell>
        <mxCell id="EfoeHj-lmJsRqs-ExASb-75" style="edgeStyle=orthogonalEdgeStyle;rounded=0;orthogonalLoop=1;jettySize=auto;html=1;entryX=0.049;entryY=-0.015;entryDx=0;entryDy=0;entryPerimeter=0;endArrow=none;endFill=0;" parent="1" source="EfoeHj-lmJsRqs-ExASb-68" target="EfoeHj-lmJsRqs-ExASb-67" edge="1">
          <mxGeometry relative="1" as="geometry">
            <Array as="points">
              <mxPoint x="350" y="250" />
              <mxPoint x="346" y="250" />
            </Array>
          </mxGeometry>
        </mxCell>
        <mxCell id="EfoeHj-lmJsRqs-ExASb-76" value="&lt;font style=&quot;font-size: 8px;&quot;&gt;Criminoso&lt;/font&gt;" style="text;html=1;align=center;verticalAlign=middle;resizable=0;points=[];autosize=1;strokeColor=none;fillColor=none;" parent="1" vertex="1">
          <mxGeometry x="320" y="195" width="60" height="30" as="geometry" />
        </mxCell>
        <mxCell id="EfoeHj-lmJsRqs-ExASb-77" value="&lt;font style=&quot;font-size: 8px;&quot;&gt;Arma&lt;/font&gt;" style="text;html=1;align=center;verticalAlign=middle;resizable=0;points=[];autosize=1;strokeColor=none;fillColor=none;" parent="1" vertex="1">
          <mxGeometry x="365" y="195" width="40" height="30" as="geometry" />
        </mxCell>
        <mxCell id="EfoeHj-lmJsRqs-ExASb-78" value="&lt;span style=&quot;font-size: 8px;&quot;&gt;Tipo&lt;/span&gt;" style="text;html=1;align=center;verticalAlign=middle;resizable=0;points=[];autosize=1;strokeColor=none;fillColor=none;" parent="1" vertex="1">
          <mxGeometry x="395" y="195" width="40" height="30" as="geometry" />
        </mxCell>
        <mxCell id="EfoeHj-lmJsRqs-ExASb-79" value="&lt;span style=&quot;font-size: 8px;&quot;&gt;Vitima&lt;/span&gt;" style="text;html=1;align=center;verticalAlign=middle;resizable=0;points=[];autosize=1;strokeColor=none;fillColor=none;" parent="1" vertex="1">
          <mxGeometry x="425" y="195" width="50" height="30" as="geometry" />
        </mxCell>
        <mxCell id="EfoeHj-lmJsRqs-ExASb-83" style="edgeStyle=orthogonalEdgeStyle;rounded=0;orthogonalLoop=1;jettySize=auto;html=1;entryX=0;entryY=0.5;entryDx=0;entryDy=0;endArrow=none;endFill=0;" parent="1" source="EfoeHj-lmJsRqs-ExASb-80" target="EfoeHj-lmJsRqs-ExASb-67" edge="1">
          <mxGeometry relative="1" as="geometry" />
        </mxCell>
        <mxCell id="EfoeHj-lmJsRqs-ExASb-80" value="Comete" style="rhombus;whiteSpace=wrap;html=1;fillColor=#647687;fontColor=#ffffff;strokeColor=#314354;" parent="1" vertex="1">
          <mxGeometry x="230" y="250" width="80" height="40" as="geometry" />
        </mxCell>
        <mxCell id="EfoeHj-lmJsRqs-ExASb-81" style="edgeStyle=orthogonalEdgeStyle;rounded=0;orthogonalLoop=1;jettySize=auto;html=1;endArrow=none;endFill=0;entryX=1;entryY=0.5;entryDx=0;entryDy=0;" parent="1" source="EfoeHj-lmJsRqs-ExASb-80" target="EfoeHj-lmJsRqs-ExASb-1" edge="1">
          <mxGeometry relative="1" as="geometry">
            <mxPoint x="210" y="270" as="targetPoint" />
          </mxGeometry>
        </mxCell>
        <mxCell id="EfoeHj-lmJsRqs-ExASb-88" style="edgeStyle=orthogonalEdgeStyle;rounded=0;orthogonalLoop=1;jettySize=auto;html=1;entryX=0;entryY=0.5;entryDx=0;entryDy=0;endArrow=none;endFill=0;" parent="1" source="EfoeHj-lmJsRqs-ExASb-89" target="EfoeHj-lmJsRqs-ExASb-34" edge="1">
          <mxGeometry relative="1" as="geometry">
            <mxPoint x="597" y="270" as="targetPoint" />
          </mxGeometry>
        </mxCell>
        <mxCell id="EfoeHj-lmJsRqs-ExASb-89" value="Sofre" style="rhombus;whiteSpace=wrap;html=1;fillColor=#647687;fontColor=#ffffff;strokeColor=#314354;" parent="1" vertex="1">
          <mxGeometry x="487" y="250" width="80" height="40" as="geometry" />
        </mxCell>
        <mxCell id="EfoeHj-lmJsRqs-ExASb-90" style="edgeStyle=orthogonalEdgeStyle;rounded=0;orthogonalLoop=1;jettySize=auto;html=1;endArrow=none;endFill=0;" parent="1" source="EfoeHj-lmJsRqs-ExASb-89" edge="1">
          <mxGeometry relative="1" as="geometry">
            <mxPoint x="460" y="270" as="targetPoint" />
          </mxGeometry>
        </mxCell>
        <mxCell id="EfoeHj-lmJsRqs-ExASb-91" value="&lt;font style=&quot;font-size: 9px;&quot;&gt;&lt;b&gt;1,n&lt;/b&gt;&lt;/font&gt;" style="text;html=1;align=center;verticalAlign=middle;resizable=0;points=[];autosize=1;strokeColor=none;fillColor=none;" parent="1" vertex="1">
          <mxGeometry x="190" y="240" width="40" height="30" as="geometry" />
        </mxCell>
        <mxCell id="EfoeHj-lmJsRqs-ExASb-92" value="&lt;font style=&quot;font-size: 10px;&quot;&gt;&lt;b&gt;1,n&lt;/b&gt;&lt;/font&gt;" style="text;html=1;align=center;verticalAlign=middle;resizable=0;points=[];autosize=1;strokeColor=none;fillColor=none;" parent="1" vertex="1">
          <mxGeometry x="305" y="240" width="40" height="30" as="geometry" />
        </mxCell>
        <mxCell id="EfoeHj-lmJsRqs-ExASb-93" value="&lt;font style=&quot;font-size: 10px;&quot;&gt;&lt;b&gt;1,n&lt;/b&gt;&lt;/font&gt;" style="text;html=1;align=center;verticalAlign=middle;resizable=0;points=[];autosize=1;strokeColor=none;fillColor=none;" parent="1" vertex="1">
          <mxGeometry x="555" y="240" width="40" height="30" as="geometry" />
        </mxCell>
        <mxCell id="EfoeHj-lmJsRqs-ExASb-95" value="&lt;font style=&quot;font-size: 10px;&quot;&gt;&lt;b&gt;1,n&lt;/b&gt;&lt;/font&gt;" style="text;html=1;align=center;verticalAlign=middle;resizable=0;points=[];autosize=1;strokeColor=none;fillColor=none;" parent="1" vertex="1">
          <mxGeometry x="455" y="240" width="40" height="30" as="geometry" />
        </mxCell>
        <mxCell id="EfoeHj-lmJsRqs-ExASb-97" style="edgeStyle=orthogonalEdgeStyle;rounded=0;orthogonalLoop=1;jettySize=auto;html=1;entryX=0.5;entryY=1;entryDx=0;entryDy=0;endArrow=none;endFill=0;" parent="1" source="EfoeHj-lmJsRqs-ExASb-96" target="EfoeHj-lmJsRqs-ExASb-67" edge="1">
          <mxGeometry relative="1" as="geometry" />
        </mxCell>
        <mxCell id="EfoeHj-lmJsRqs-ExASb-96" value="&lt;span style=&quot;font-weight: normal;&quot;&gt;Utilizada&lt;/span&gt;" style="rhombus;whiteSpace=wrap;html=1;fontStyle=1;fillColor=#647687;fontColor=#ffffff;strokeColor=#314354;" parent="1" vertex="1">
          <mxGeometry x="360" y="425" width="80" height="40" as="geometry" />
        </mxCell>
        <mxCell id="EfoeHj-lmJsRqs-ExASb-99" style="edgeStyle=orthogonalEdgeStyle;rounded=0;orthogonalLoop=1;jettySize=auto;html=1;endArrow=none;endFill=0;" parent="1" source="EfoeHj-lmJsRqs-ExASb-50" target="EfoeHj-lmJsRqs-ExASb-96" edge="1">
          <mxGeometry relative="1" as="geometry">
            <mxPoint x="340" y="415" as="targetPoint" />
          </mxGeometry>
        </mxCell>
        <mxCell id="EfoeHj-lmJsRqs-ExASb-100" value="&lt;b style=&quot;font-size: 9px;&quot;&gt;1,n&lt;/b&gt;" style="text;html=1;align=center;verticalAlign=middle;resizable=0;points=[];autosize=1;strokeColor=none;fillColor=none;" parent="1" vertex="1">
          <mxGeometry x="325" y="420" width="40" height="30" as="geometry" />
        </mxCell>
        <mxCell id="EfoeHj-lmJsRqs-ExASb-101" value="&lt;b style=&quot;color: rgb(0, 0, 0); font-family: Helvetica; font-size: 10px; font-style: normal; font-variant-ligatures: normal; font-variant-caps: normal; letter-spacing: normal; orphans: 2; text-align: center; text-indent: 0px; text-transform: none; widows: 2; word-spacing: 0px; -webkit-text-stroke-width: 0px; white-space: nowrap; background-color: rgb(251, 251, 251); text-decoration-thickness: initial; text-decoration-style: initial; text-decoration-color: initial;&quot;&gt;1,n&lt;/b&gt;" style="text;whiteSpace=wrap;html=1;" parent="1" vertex="1">
          <mxGeometry x="375" y="290" width="50" height="40" as="geometry" />
        </mxCell>
        <mxCell id="EfoeHj-lmJsRqs-ExASb-104" style="edgeStyle=orthogonalEdgeStyle;rounded=0;orthogonalLoop=1;jettySize=auto;html=1;endArrow=none;endFill=0;" parent="1" source="EfoeHj-lmJsRqs-ExASb-102" target="EfoeHj-lmJsRqs-ExASb-50" edge="1">
          <mxGeometry relative="1" as="geometry" />
        </mxCell>
        <mxCell id="EfoeHj-lmJsRqs-ExASb-102" value="&lt;span style=&quot;font-weight: normal;&quot;&gt;Tem&lt;/span&gt;" style="rhombus;whiteSpace=wrap;html=1;fontStyle=1;fillColor=#647687;fontColor=#ffffff;strokeColor=#314354;" parent="1" vertex="1">
          <mxGeometry x="100" y="425" width="80" height="40" as="geometry" />
        </mxCell>
        <mxCell id="EfoeHj-lmJsRqs-ExASb-105" value="&lt;font style=&quot;font-size: 9px;&quot;&gt;&lt;b&gt;1,1&lt;/b&gt;&lt;/font&gt;" style="text;html=1;align=center;verticalAlign=middle;resizable=0;points=[];autosize=1;strokeColor=none;fillColor=none;" parent="1" vertex="1">
          <mxGeometry x="135" y="290" width="40" height="30" as="geometry" />
        </mxCell>
        <mxCell id="EfoeHj-lmJsRqs-ExASb-107" value="&lt;b style=&quot;font-size: 9px;&quot;&gt;1,n&lt;/b&gt;" style="text;html=1;align=center;verticalAlign=middle;resizable=0;points=[];autosize=1;strokeColor=none;fillColor=none;" parent="1" vertex="1">
          <mxGeometry x="175" y="415" width="40" height="30" as="geometry" />
        </mxCell>
        <mxCell id="EfoeHj-lmJsRqs-ExASb-110" style="edgeStyle=orthogonalEdgeStyle;rounded=0;orthogonalLoop=1;jettySize=auto;html=1;endArrow=none;endFill=0;" parent="1" source="EfoeHj-lmJsRqs-ExASb-109" edge="1">
          <mxGeometry relative="1" as="geometry">
            <mxPoint x="270" y="425" as="targetPoint" />
          </mxGeometry>
        </mxCell>
        <mxCell id="EfoeHj-lmJsRqs-ExASb-109" value="" style="ellipse;whiteSpace=wrap;html=1;aspect=fixed;fillColor=#dae8fc;strokeColor=#6c8ebf;" parent="1" vertex="1">
          <mxGeometry x="265" y="395" width="10" height="10" as="geometry" />
        </mxCell>
        <mxCell id="EfoeHj-lmJsRqs-ExASb-112" value="&lt;span style=&quot;font-size: 8px;&quot;&gt;Dono&lt;/span&gt;" style="text;html=1;align=center;verticalAlign=middle;resizable=0;points=[];autosize=1;strokeColor=none;fillColor=none;" parent="1" vertex="1">
          <mxGeometry x="250" y="370" width="40" height="30" as="geometry" />
        </mxCell>
        <mxCell id="EfoeHj-lmJsRqs-ExASb-113" value="RelatÃ³rio" style="rounded=0;whiteSpace=wrap;html=1;" parent="1" vertex="1">
          <mxGeometry x="340" y="-20" width="120" height="40" as="geometry" />
        </mxCell>
        <mxCell id="EfoeHj-lmJsRqs-ExASb-114" value="" style="ellipse;whiteSpace=wrap;html=1;aspect=fixed;fillColor=#dae8fc;strokeColor=#6c8ebf;" parent="1" vertex="1">
          <mxGeometry x="340" y="-50" width="10" height="10" as="geometry" />
        </mxCell>
        <mxCell id="EfoeHj-lmJsRqs-ExASb-115" value="" style="ellipse;whiteSpace=wrap;html=1;aspect=fixed;fillColor=#dae8fc;strokeColor=#6c8ebf;" parent="1" vertex="1">
          <mxGeometry x="370" y="-50" width="10" height="10" as="geometry" />
        </mxCell>
        <mxCell id="EfoeHj-lmJsRqs-ExASb-116" value="" style="ellipse;whiteSpace=wrap;html=1;aspect=fixed;fillColor=#dae8fc;strokeColor=#6c8ebf;" parent="1" vertex="1">
          <mxGeometry x="420" y="-50" width="10" height="10" as="geometry" />
        </mxCell>
        <mxCell id="EfoeHj-lmJsRqs-ExASb-117" value="" style="ellipse;whiteSpace=wrap;html=1;aspect=fixed;fillColor=#dae8fc;strokeColor=#6c8ebf;" parent="1" vertex="1">
          <mxGeometry x="450" y="-50" width="10" height="10" as="geometry" />
        </mxCell>
        <mxCell id="EfoeHj-lmJsRqs-ExASb-118" style="edgeStyle=orthogonalEdgeStyle;rounded=0;orthogonalLoop=1;jettySize=auto;html=1;entryX=0.5;entryY=0;entryDx=0;entryDy=0;endArrow=none;endFill=0;" parent="1" source="EfoeHj-lmJsRqs-ExASb-119" target="EfoeHj-lmJsRqs-ExASb-113" edge="1">
          <mxGeometry relative="1" as="geometry" />
        </mxCell>
        <mxCell id="EfoeHj-lmJsRqs-ExASb-119" value="" style="ellipse;whiteSpace=wrap;html=1;aspect=fixed;fillColor=#dae8fc;strokeColor=#6c8ebf;" parent="1" vertex="1">
          <mxGeometry x="395" y="-50" width="10" height="10" as="geometry" />
        </mxCell>
        <mxCell id="EfoeHj-lmJsRqs-ExASb-120" style="edgeStyle=orthogonalEdgeStyle;rounded=0;orthogonalLoop=1;jettySize=auto;html=1;endArrow=none;endFill=0;" parent="1" source="EfoeHj-lmJsRqs-ExASb-116" edge="1">
          <mxGeometry relative="1" as="geometry">
            <mxPoint x="425" y="-20" as="targetPoint" />
          </mxGeometry>
        </mxCell>
        <mxCell id="EfoeHj-lmJsRqs-ExASb-121" style="edgeStyle=orthogonalEdgeStyle;rounded=0;orthogonalLoop=1;jettySize=auto;html=1;entryX=0.953;entryY=-0.001;entryDx=0;entryDy=0;entryPerimeter=0;endArrow=none;endFill=0;" parent="1" source="EfoeHj-lmJsRqs-ExASb-117" target="EfoeHj-lmJsRqs-ExASb-113" edge="1">
          <mxGeometry relative="1" as="geometry" />
        </mxCell>
        <mxCell id="EfoeHj-lmJsRqs-ExASb-122" style="edgeStyle=orthogonalEdgeStyle;rounded=0;orthogonalLoop=1;jettySize=auto;html=1;entryX=0.292;entryY=0;entryDx=0;entryDy=0;entryPerimeter=0;endArrow=none;endFill=0;" parent="1" source="EfoeHj-lmJsRqs-ExASb-115" target="EfoeHj-lmJsRqs-ExASb-113" edge="1">
          <mxGeometry relative="1" as="geometry" />
        </mxCell>
        <mxCell id="EfoeHj-lmJsRqs-ExASb-123" style="edgeStyle=orthogonalEdgeStyle;rounded=0;orthogonalLoop=1;jettySize=auto;html=1;entryX=0.049;entryY=-0.015;entryDx=0;entryDy=0;entryPerimeter=0;endArrow=none;endFill=0;" parent="1" source="EfoeHj-lmJsRqs-ExASb-114" target="EfoeHj-lmJsRqs-ExASb-113" edge="1">
          <mxGeometry relative="1" as="geometry" />
        </mxCell>
        <mxCell id="EfoeHj-lmJsRqs-ExASb-124" value="&lt;font style=&quot;font-size: 8px;&quot;&gt;Titulo&lt;/font&gt;" style="text;html=1;align=center;verticalAlign=middle;resizable=0;points=[];autosize=1;strokeColor=none;fillColor=none;" parent="1" vertex="1">
          <mxGeometry x="325" y="-80" width="40" height="30" as="geometry" />
        </mxCell>
        <mxCell id="EfoeHj-lmJsRqs-ExASb-125" value="&lt;font style=&quot;font-size: 8px;&quot;&gt;Tipo&lt;/font&gt;" style="text;html=1;align=center;verticalAlign=middle;resizable=0;points=[];autosize=1;strokeColor=none;fillColor=none;" parent="1" vertex="1">
          <mxGeometry x="355" y="-80" width="40" height="30" as="geometry" />
        </mxCell>
        <mxCell id="EfoeHj-lmJsRqs-ExASb-126" value="&lt;span style=&quot;font-size: 8px;&quot;&gt;Desc.&lt;/span&gt;" style="text;html=1;align=center;verticalAlign=middle;resizable=0;points=[];autosize=1;strokeColor=none;fillColor=none;" parent="1" vertex="1">
          <mxGeometry x="380" y="-80" width="40" height="30" as="geometry" />
        </mxCell>
        <mxCell id="EfoeHj-lmJsRqs-ExASb-127" value="&lt;span style=&quot;font-size: 8px;&quot;&gt;Local&lt;/span&gt;" style="text;html=1;align=center;verticalAlign=middle;resizable=0;points=[];autosize=1;strokeColor=none;fillColor=none;" parent="1" vertex="1">
          <mxGeometry x="405" y="-80" width="40" height="30" as="geometry" />
        </mxCell>
        <mxCell id="EfoeHj-lmJsRqs-ExASb-128" value="&lt;span style=&quot;font-size: 8px;&quot;&gt;Data&lt;/span&gt;" style="text;html=1;align=center;verticalAlign=middle;resizable=0;points=[];autosize=1;strokeColor=none;fillColor=none;" parent="1" vertex="1">
          <mxGeometry x="435" y="-80" width="40" height="30" as="geometry" />
        </mxCell>
        <mxCell id="EfoeHj-lmJsRqs-ExASb-129" value="Delegado" style="rounded=0;whiteSpace=wrap;html=1;" parent="1" vertex="1">
          <mxGeometry x="80" y="-20" width="120" height="40" as="geometry" />
        </mxCell>
        <mxCell id="EfoeHj-lmJsRqs-ExASb-130" value="" style="ellipse;whiteSpace=wrap;html=1;aspect=fixed;fillColor=#dae8fc;strokeColor=#6c8ebf;" parent="1" vertex="1">
          <mxGeometry x="80" y="-50" width="10" height="10" as="geometry" />
        </mxCell>
        <mxCell id="EfoeHj-lmJsRqs-ExASb-131" value="" style="ellipse;whiteSpace=wrap;html=1;aspect=fixed;fillColor=#dae8fc;strokeColor=#6c8ebf;" parent="1" vertex="1">
          <mxGeometry x="110" y="-50" width="10" height="10" as="geometry" />
        </mxCell>
        <mxCell id="EfoeHj-lmJsRqs-ExASb-132" value="" style="ellipse;whiteSpace=wrap;html=1;aspect=fixed;fillColor=#dae8fc;strokeColor=#6c8ebf;" parent="1" vertex="1">
          <mxGeometry x="160" y="-50" width="10" height="10" as="geometry" />
        </mxCell>
        <mxCell id="EfoeHj-lmJsRqs-ExASb-133" value="" style="ellipse;whiteSpace=wrap;html=1;aspect=fixed;fillColor=#f8cecc;strokeColor=#b85450;" parent="1" vertex="1">
          <mxGeometry x="190" y="-50" width="10" height="10" as="geometry" />
        </mxCell>
        <mxCell id="EfoeHj-lmJsRqs-ExASb-134" style="edgeStyle=orthogonalEdgeStyle;rounded=0;orthogonalLoop=1;jettySize=auto;html=1;entryX=0.5;entryY=0;entryDx=0;entryDy=0;endArrow=none;endFill=0;" parent="1" source="EfoeHj-lmJsRqs-ExASb-135" target="EfoeHj-lmJsRqs-ExASb-129" edge="1">
          <mxGeometry relative="1" as="geometry" />
        </mxCell>
        <mxCell id="EfoeHj-lmJsRqs-ExASb-135" value="" style="ellipse;whiteSpace=wrap;html=1;aspect=fixed;fillColor=#dae8fc;strokeColor=#6c8ebf;" parent="1" vertex="1">
          <mxGeometry x="135" y="-50" width="10" height="10" as="geometry" />
        </mxCell>
        <mxCell id="EfoeHj-lmJsRqs-ExASb-136" style="edgeStyle=orthogonalEdgeStyle;rounded=0;orthogonalLoop=1;jettySize=auto;html=1;endArrow=none;endFill=0;" parent="1" source="EfoeHj-lmJsRqs-ExASb-132" edge="1">
          <mxGeometry relative="1" as="geometry">
            <mxPoint x="165" y="-20" as="targetPoint" />
          </mxGeometry>
        </mxCell>
        <mxCell id="EfoeHj-lmJsRqs-ExASb-137" style="edgeStyle=orthogonalEdgeStyle;rounded=0;orthogonalLoop=1;jettySize=auto;html=1;entryX=0.953;entryY=-0.001;entryDx=0;entryDy=0;entryPerimeter=0;endArrow=none;endFill=0;" parent="1" source="EfoeHj-lmJsRqs-ExASb-133" target="EfoeHj-lmJsRqs-ExASb-129" edge="1">
          <mxGeometry relative="1" as="geometry" />
        </mxCell>
        <mxCell id="EfoeHj-lmJsRqs-ExASb-138" style="edgeStyle=orthogonalEdgeStyle;rounded=0;orthogonalLoop=1;jettySize=auto;html=1;entryX=0.292;entryY=0;entryDx=0;entryDy=0;entryPerimeter=0;endArrow=none;endFill=0;" parent="1" source="EfoeHj-lmJsRqs-ExASb-131" target="EfoeHj-lmJsRqs-ExASb-129" edge="1">
          <mxGeometry relative="1" as="geometry" />
        </mxCell>
        <mxCell id="EfoeHj-lmJsRqs-ExASb-139" style="edgeStyle=orthogonalEdgeStyle;rounded=0;orthogonalLoop=1;jettySize=auto;html=1;entryX=0.049;entryY=-0.015;entryDx=0;entryDy=0;entryPerimeter=0;endArrow=none;endFill=0;" parent="1" source="EfoeHj-lmJsRqs-ExASb-130" target="EfoeHj-lmJsRqs-ExASb-129" edge="1">
          <mxGeometry relative="1" as="geometry" />
        </mxCell>
        <mxCell id="EfoeHj-lmJsRqs-ExASb-140" value="&lt;font style=&quot;font-size: 8px;&quot;&gt;Nome&lt;/font&gt;" style="text;html=1;align=center;verticalAlign=middle;resizable=0;points=[];autosize=1;strokeColor=none;fillColor=none;" parent="1" vertex="1">
          <mxGeometry x="65" y="-80" width="40" height="30" as="geometry" />
        </mxCell>
        <mxCell id="EfoeHj-lmJsRqs-ExASb-141" value="&lt;font style=&quot;font-size: 8px;&quot;&gt;Idade&lt;/font&gt;" style="text;html=1;align=center;verticalAlign=middle;resizable=0;points=[];autosize=1;strokeColor=none;fillColor=none;" parent="1" vertex="1">
          <mxGeometry x="95" y="-80" width="40" height="30" as="geometry" />
        </mxCell>
        <mxCell id="EfoeHj-lmJsRqs-ExASb-142" value="&lt;span style=&quot;font-size: 8px;&quot;&gt;End.&lt;/span&gt;" style="text;html=1;align=center;verticalAlign=middle;resizable=0;points=[];autosize=1;strokeColor=none;fillColor=none;" parent="1" vertex="1">
          <mxGeometry x="120" y="-80" width="40" height="30" as="geometry" />
        </mxCell>
        <mxCell id="EfoeHj-lmJsRqs-ExASb-143" value="&lt;span style=&quot;font-size: 8px;&quot;&gt;Tel.&lt;/span&gt;" style="text;html=1;align=center;verticalAlign=middle;resizable=0;points=[];autosize=1;strokeColor=none;fillColor=none;" parent="1" vertex="1">
          <mxGeometry x="145" y="-80" width="40" height="30" as="geometry" />
        </mxCell>
        <mxCell id="EfoeHj-lmJsRqs-ExASb-144" value="&lt;span style=&quot;font-size: 8px;&quot;&gt;CPF&lt;/span&gt;" style="text;html=1;align=center;verticalAlign=middle;resizable=0;points=[];autosize=1;strokeColor=none;fillColor=none;" parent="1" vertex="1">
          <mxGeometry x="175" y="-80" width="40" height="30" as="geometry" />
        </mxCell>
        <mxCell id="EfoeHj-lmJsRqs-ExASb-146" style="edgeStyle=orthogonalEdgeStyle;rounded=0;orthogonalLoop=1;jettySize=auto;html=1;entryX=0.5;entryY=0;entryDx=0;entryDy=0;endArrow=none;endFill=0;" parent="1" source="EfoeHj-lmJsRqs-ExASb-147" target="EfoeHj-lmJsRqs-ExASb-67" edge="1">
          <mxGeometry relative="1" as="geometry">
            <mxPoint x="535" as="targetPoint" />
          </mxGeometry>
        </mxCell>
        <mxCell id="EfoeHj-lmJsRqs-ExASb-152" style="edgeStyle=orthogonalEdgeStyle;rounded=0;orthogonalLoop=1;jettySize=auto;html=1;entryX=0.5;entryY=1;entryDx=0;entryDy=0;endArrow=none;endFill=0;" parent="1" source="EfoeHj-lmJsRqs-ExASb-147" target="EfoeHj-lmJsRqs-ExASb-113" edge="1">
          <mxGeometry relative="1" as="geometry" />
        </mxCell>
        <mxCell id="EfoeHj-lmJsRqs-ExASb-147" value="&lt;span style=&quot;font-weight: normal;&quot;&gt;Gera&lt;/span&gt;" style="rhombus;whiteSpace=wrap;html=1;fontStyle=1;fillColor=#647687;fontColor=#ffffff;strokeColor=#314354;" parent="1" vertex="1">
          <mxGeometry x="360" y="70" width="80" height="40" as="geometry" />
        </mxCell>
        <mxCell id="EfoeHj-lmJsRqs-ExASb-153" style="edgeStyle=orthogonalEdgeStyle;rounded=0;orthogonalLoop=1;jettySize=auto;html=1;entryX=1;entryY=0.5;entryDx=0;entryDy=0;endArrow=none;endFill=0;" parent="1" source="EfoeHj-lmJsRqs-ExASb-149" target="EfoeHj-lmJsRqs-ExASb-129" edge="1">
          <mxGeometry relative="1" as="geometry" />
        </mxCell>
        <mxCell id="EfoeHj-lmJsRqs-ExASb-149" value="Solicita" style="rhombus;whiteSpace=wrap;html=1;fillColor=#647687;fontColor=#ffffff;strokeColor=#314354;" parent="1" vertex="1">
          <mxGeometry x="225" y="-20" width="85" height="40" as="geometry" />
        </mxCell>
        <mxCell id="EfoeHj-lmJsRqs-ExASb-150" value="&lt;font style=&quot;font-size: 9px;&quot;&gt;&lt;b&gt;1,1&lt;/b&gt;&lt;/font&gt;" style="text;html=1;align=center;verticalAlign=middle;resizable=0;points=[];autosize=1;strokeColor=none;fillColor=none;" parent="1" vertex="1">
          <mxGeometry x="190" y="-30" width="40" height="30" as="geometry" />
        </mxCell>
        <mxCell id="EfoeHj-lmJsRqs-ExASb-151" value="&lt;font style=&quot;font-size: 10px;&quot;&gt;&lt;b&gt;1,n&lt;/b&gt;&lt;/font&gt;" style="text;html=1;align=center;verticalAlign=middle;resizable=0;points=[];autosize=1;strokeColor=none;fillColor=none;" parent="1" vertex="1">
          <mxGeometry x="305" y="-30" width="40" height="30" as="geometry" />
        </mxCell>
        <mxCell id="EfoeHj-lmJsRqs-ExASb-154" style="edgeStyle=orthogonalEdgeStyle;rounded=0;orthogonalLoop=1;jettySize=auto;html=1;entryX=0.006;entryY=0.502;entryDx=0;entryDy=0;entryPerimeter=0;endArrow=none;endFill=0;" parent="1" source="EfoeHj-lmJsRqs-ExASb-149" target="EfoeHj-lmJsRqs-ExASb-113" edge="1">
          <mxGeometry relative="1" as="geometry">
            <mxPoint x="330" as="targetPoint" />
          </mxGeometry>
        </mxCell>
        <mxCell id="EfoeHj-lmJsRqs-ExASb-155" value="&lt;font style=&quot;font-size: 10px;&quot;&gt;&lt;b&gt;1, 1&lt;/b&gt;&lt;/font&gt;" style="text;html=1;align=center;verticalAlign=middle;resizable=0;points=[];autosize=1;strokeColor=none;fillColor=none;" parent="1" vertex="1">
          <mxGeometry x="365" y="110" width="40" height="30" as="geometry" />
        </mxCell>
        <mxCell id="EfoeHj-lmJsRqs-ExASb-156" value="&lt;font style=&quot;font-size: 10px;&quot;&gt;&lt;b&gt;1,1&lt;/b&gt;&lt;/font&gt;" style="text;html=1;align=center;verticalAlign=middle;resizable=0;points=[];autosize=1;strokeColor=none;fillColor=none;" parent="1" vertex="1">
          <mxGeometry x="365" y="20" width="40" height="30" as="geometry" />
        </mxCell>
      </root>
    </mxGraphModel>
  </diagram>
</mxfile>
